<svg id="Слой_1" data-name="Слой 1" xmlns="http://www.w3.org/2000/svg" viewBox="0 0 436.5 436.5"><defs><style>.cls-1{stroke:#000;}.cls-1,.cls-3{stroke-miterlimit:10;}.cls-2{fill:#f39719;}.cls-3{fill:none;stroke:#f39719;}.cls-4{fill:#fff;}</style></defs><rect class="cls-1" x="0.5" y="0.5" width="435.5" height="435.5"/><path class="cls-2" d="M104.81,280.74c-.5-.34-3.79-2.59-4.2-6.48a7.39,7.39,0,0,1,.72-4.39c.25-.38.74-1,1.49-2.07a7.37,7.37,0,0,1,.6-.79c.51-.6.68-.63.79-.81.66-1.15-3.12-4.85-4-5.73-1.32-1.29-1.71-1.53-1.86-2.22s0-1.89,2.2-4.28a27.26,27.26,0,0,1,7.18-5.64,32,32,0,0,1,6.42-2.57,30.55,30.55,0,0,1,5.64-1.28,6.19,6.19,0,0,0,2.23-.43,6.87,6.87,0,0,0,2.73-2.65s.55-.73,3.17-3.76a13.66,13.66,0,0,1,7.18-4.11c2.4-.18,6.06-.46,10.52-.77,40-2.79,42.2-2.38,45.94-2.72s19.31-14.49,47.45-21.91A124.44,124.44,0,0,1,264,204c14.4-.86,28.74,1,47.83,5.15,29.76,6.41,70.3,21.55,79.53,21s11-4.11,11-1c0,1.83.48,3.65.36,5.47-.23,3.41,3.9,7.9,6.14,12a26.43,26.43,0,0,1,2.22,19.15,25.08,25.08,0,0,1-9.07,13c-4.05,3.1-7.79,4-14.88,5.64a98.64,98.64,0,0,1-19.67,2.48A88.83,88.83,0,0,0,386.11,283c8.1-2.65,12.49-4.14,16.31-8.51.93-1.06,5.94-6.78,5.58-14.23-.32-6.91-5.2-14-5.84-14.91-7.7-10.79-1.8-12.33-5.13-10-10.42,7.21-75.69-16.42-75.69-16.42-20.09-7.28-29.39-10-41.56-10.78a133.59,133.59,0,0,0-25.14,1,104.42,104.42,0,0,0-22.32,5.13c-9,3.2-15.79,7.14-22.07,10.77-5.05,2.93-13.59,8.21-13.59,8.21-4.23,0-9.44.13-15.4.26-2.81.06-4.92.16-6.08.21-11.69.46-12.6.85-24.57,1.45,0,0-4.29.21-12.07.91a23.67,23.67,0,0,0-4.15.51c-2.31.65-6.3,2.65-9.83,10.13a35.2,35.2,0,0,0-6.44.42,28.54,28.54,0,0,0-10.32,3.39c-4,2.32-7.24,5.63-6.84,7.35a1.28,1.28,0,0,0,.07.26,30.7,30.7,0,0,0,2.49,2.74,18.88,18.88,0,0,1,2.31,3,13.81,13.81,0,0,1,1.41,3.21,7.31,7.31,0,0,0-3.8,3.25,6.22,6.22,0,0,0,5.81,9.49Z" transform="translate(-37.75 -37.75)"/><path class="cls-3" d="M220.52,229a63.05,63.05,0,0,1,11.4-8.17,70.26,70.26,0,0,1,22.89-7.8,90.74,90.74,0,0,1,19.84-1.37,116.24,116.24,0,0,1,18.43,2.09,140.67,140.67,0,0,1,32.44,10.42S257.21,230.12,220.52,229Z" transform="translate(-37.75 -37.75)"/><path class="cls-3" d="M221.16,228.11a62.25,62.25,0,0,1,11.2-7.33,73.59,73.59,0,0,1,22.49-7,98.32,98.32,0,0,1,19.48-1.23,124.84,124.84,0,0,1,18.1,1.88,147.41,147.41,0,0,1,31.86,9.35S257.2,229.08,221.16,228.11Z" transform="translate(-37.75 -37.75)"/><rect class="cls-2" x="219.43" y="199.05" width="109.85" height="73.23" rx="3.4"/><path class="cls-4" d="M140.36,268.71l-6.27-1.09a9.44,9.44,0,0,1,3.64-5.39c1.72-1.16,4.27-1.75,7.66-1.75a16.91,16.91,0,0,1,6.88,1.06,6.73,6.73,0,0,1,3.18,2.67q.93,1.62.93,5.94l-.08,7.75a26.14,26.14,0,0,0,.33,4.89,14.05,14.05,0,0,0,1.24,3.36h-6.82a19.17,19.17,0,0,1-.67-2q-.16-.58-.24-.78a12.45,12.45,0,0,1-3.79,2.48,11.2,11.2,0,0,1-4.3.83,9.13,9.13,0,0,1-6.35-2.1,7.29,7.29,0,0,1-1.26-9.12,6.78,6.78,0,0,1,3-2.55,23.81,23.81,0,0,1,5.49-1.55,38.35,38.35,0,0,0,6.71-1.63v-.66a3.34,3.34,0,0,0-1-2.73c-.65-.54-1.89-.81-3.71-.81a5.12,5.12,0,0,0-2.87.69A4.81,4.81,0,0,0,140.36,268.71Zm9.24,5.39c-.89.28-2.29.62-4.21,1a12.87,12.87,0,0,0-3.75,1.15,2.75,2.75,0,0,0-1.36,2.34,3.2,3.2,0,0,0,1.09,2.41,3.83,3.83,0,0,0,2.75,1,6.12,6.12,0,0,0,3.56-1.18,4.24,4.24,0,0,0,1.65-2.2,13.18,13.18,0,0,0,.27-3.24Z" transform="translate(-37.75 -37.75)"/><path class="cls-4" d="M180.35,286.15V282.4a10,10,0,0,1-3.74,3.16,10.9,10.9,0,0,1-4.9,1.16,9.88,9.88,0,0,1-4.72-1.11,6.66,6.66,0,0,1-3-3.12,13.32,13.32,0,0,1-.94-5.56V261.05h6.91v11.54a30.24,30.24,0,0,0,.38,6.48,3.45,3.45,0,0,0,1.39,1.89,4.34,4.34,0,0,0,2.55.7,5.59,5.59,0,0,0,3.17-.93,4.85,4.85,0,0,0,1.92-2.32q.51-1.38.51-6.77V261.05h6.9v25.1Z" transform="translate(-37.75 -37.75)"/><path class="cls-4" d="M205.88,261.05v5.3h-4.72v10.11a24.59,24.59,0,0,0,.13,3.58,1.46,1.46,0,0,0,.62.84,2,2,0,0,0,1.17.33,9.34,9.34,0,0,0,2.77-.63l.59,5.15a14.2,14.2,0,0,1-5.45,1,9,9,0,0,1-3.37-.6,4.89,4.89,0,0,1-2.2-1.56,6.1,6.1,0,0,1-1-2.59,32.07,32.07,0,0,1-.22-4.68V266.35h-3.17v-5.3h3.17v-5l6.93-3.87v8.86Z" transform="translate(-37.75 -37.75)"/><path class="cls-4" d="M209.07,273.25a13.19,13.19,0,0,1,1.69-6.41,11.54,11.54,0,0,1,4.81-4.73,14.77,14.77,0,0,1,6.94-1.63,13.32,13.32,0,0,1,9.7,3.7,13.51,13.51,0,0,1,0,18.79,13.15,13.15,0,0,1-9.61,3.75,15.68,15.68,0,0,1-6.85-1.56,11,11,0,0,1-5-4.57A14.78,14.78,0,0,1,209.07,273.25Zm7.08.35a8.09,8.09,0,0,0,1.84,5.72,6.16,6.16,0,0,0,9.07,0,8.21,8.21,0,0,0,1.83-5.77,8.07,8.07,0,0,0-1.83-5.67,6.18,6.18,0,0,0-9.07,0A8.09,8.09,0,0,0,216.15,273.6Z" transform="translate(-37.75 -37.75)"/><path d="M276.23,251.5v12.74a10.36,10.36,0,0,1,8-3.76,10.64,10.64,0,0,1,4.3.85,7.09,7.09,0,0,1,2.88,2.18,7.72,7.72,0,0,1,1.33,2.93,25,25,0,0,1,.36,5v14.72h-6.91V272.89a19.06,19.06,0,0,0-.39-5,3.33,3.33,0,0,0-1.39-1.69,4.55,4.55,0,0,0-2.49-.62,5.84,5.84,0,0,0-3.07.8,4.7,4.7,0,0,0-2,2.42,13.92,13.92,0,0,0-.63,4.79v12.57h-6.9V251.5Z" transform="translate(-37.75 -37.75)"/><path d="M317.26,286.15V282.4a10,10,0,0,1-3.75,3.16,10.87,10.87,0,0,1-4.9,1.16,9.93,9.93,0,0,1-4.72-1.11,6.7,6.7,0,0,1-3-3.12,13.51,13.51,0,0,1-.93-5.56V261.05h6.9v11.54a31,31,0,0,0,.38,6.48,3.55,3.55,0,0,0,1.39,1.89,4.35,4.35,0,0,0,2.56.7,5.61,5.61,0,0,0,3.17-.93,4.77,4.77,0,0,0,1.91-2.32c.34-.92.52-3.18.52-6.77V261.05h6.9v25.1Z" transform="translate(-37.75 -37.75)"/><path d="M330.52,286.15V251.5h6.91V264a9.93,9.93,0,0,1,7.56-3.5,10.37,10.37,0,0,1,7.89,3.32q3.12,3.33,3.12,9.54,0,6.44-3.18,9.91a10.11,10.11,0,0,1-7.73,3.47,9.94,9.94,0,0,1-4.41-1.07,10.39,10.39,0,0,1-3.74-3.18v3.68Zm6.86-13.09c0,2.6.42,4.52,1.28,5.77a5.5,5.5,0,0,0,4.76,2.64,5,5,0,0,0,3.9-1.88q1.6-1.87,1.6-5.92c0-2.87-.54-4.93-1.62-6.2a5.19,5.19,0,0,0-4.15-1.9,5.29,5.29,0,0,0-4.13,1.85Q337.39,269.28,337.38,273.06Z" transform="translate(-37.75 -37.75)"/></svg>